<svg version="1.1" id="Layer_1" xmlns="http://www.w3.org/2000/svg" xmlns:xlink="http://www.w3.org/1999/xlink" x="0px" y="0px"
	 width="100%" viewBox="0 0 512 512" enable-background="new 0 0 512 512" xml:space="preserve">
<path fill="#34383C" opacity="1.000000" stroke="none" 
	d="
M153.010498,235.000000 
	C153.010010,196.167511 153.051392,157.834961 152.993622,119.502556 
	C152.957596,95.586487 159.955353,73.907631 174.663513,55.164513 
	C192.096237,32.949364 214.929077,19.592644 243.217651,15.896056 
	C271.859192,12.153344 297.551392,19.251949 320.579895,36.401085 
	C324.160767,39.067703 327.579071,42.045372 330.653412,45.277836 
	C335.358124,50.224552 338.217865,55.993885 338.058380,63.181370 
	C337.807098,74.508873 337.812195,85.850990 338.122437,97.175591 
	C338.197876,99.929199 339.317963,103.040886 340.922913,105.303185 
	C351.407715,120.082153 357.699921,136.309586 360.132782,154.325714 
	C362.922241,174.982071 358.889771,194.323288 350.403595,212.927887 
	C347.941681,218.325241 344.032471,223.045029 341.231720,228.312042 
	C339.677246,231.235382 338.134216,234.645065 338.125854,237.839569 
	C337.948975,305.170929 337.942993,372.502960 338.039459,439.834686 
	C338.055817,451.260986 333.552795,459.059540 323.175781,464.609924 
	C304.752014,474.464294 286.872589,485.336395 268.765137,495.782227 
	C261.079254,500.216003 253.263641,500.351715 245.590851,495.987396 
	C224.225662,483.834778 202.929443,471.560730 181.623047,459.304993 
	C175.444031,455.750702 169.134995,452.376373 163.222916,448.415924 
	C156.096786,443.642303 152.947342,436.695343 152.960007,427.995270 
	C153.053406,363.830292 153.010483,299.665100 153.010498,235.000000 
M326.011719,80.055199 
	C326.018860,75.389091 325.710236,70.695709 326.110504,66.063568 
	C326.650879,59.809372 324.161255,55.376255 319.648926,51.238964 
	C291.574005,25.497522 251.069717,18.915318 217.001266,36.055576 
	C184.462448,52.426262 166.947449,79.294083 164.977783,116.908279 
	C164.962082,123.065590 164.932846,129.222900 164.932663,135.380219 
	C164.929794,232.529678 164.968506,329.679199 164.842453,426.828491 
	C164.834366,433.068787 167.024323,437.028656 172.451065,440.114471 
	C198.194962,454.753326 223.846985,469.556702 249.396118,484.532837 
	C254.798355,487.699493 259.419952,487.626617 264.741791,484.487457 
	C282.367767,474.090637 300.061584,463.799835 317.931213,453.830109 
	C323.930359,450.483124 326.157288,446.147186 326.139191,439.331940 
	C325.958252,371.177826 326.062500,303.022980 325.954987,234.868561 
	C325.947815,230.306274 327.048279,226.708908 329.876587,223.009232 
	C342.938782,205.922668 349.666748,186.632401 349.004303,164.057709 
	C348.313324,145.690552 343.036652,128.882782 331.841614,113.365456 
	C327.296997,108.775635 325.262543,103.464638 325.914642,96.833038 
	C326.429138,91.600983 325.917114,86.267982 326.011719,80.055199 
z"/>
<path fill="#D3EFF4" opacity="1.000000" stroke="none" 
	d="
M348.855591,164.945480 
	C349.666748,186.632401 342.938782,205.922668 329.876587,223.009232 
	C327.048279,226.708908 325.947815,230.306274 325.954987,234.868561 
	C326.062500,303.022980 325.958252,371.177826 326.139191,439.331940 
	C326.157288,446.147186 323.930359,450.483124 317.931213,453.830109 
	C300.061584,463.799835 282.367767,474.090637 264.741791,484.487457 
	C259.419952,487.626617 254.798355,487.699493 249.396118,484.532837 
	C223.846985,469.556702 198.194962,454.753326 172.451065,440.114471 
	C167.024323,437.028656 164.834366,433.068787 164.842453,426.828491 
	C164.968506,329.679199 164.929794,232.529678 164.932663,135.380219 
	C164.932846,129.222900 164.962082,123.065590 165.286438,116.191414 
	C172.393890,99.844261 181.592209,86.035446 195.111740,75.278854 
	C218.441147,56.717220 244.722351,49.673676 274.126892,54.554077 
	C294.144257,57.876450 311.017822,67.469055 325.860962,80.979820 
	C325.917114,86.267982 326.429138,91.600983 325.914642,96.833038 
	C325.262543,103.464638 327.296997,108.775635 331.927307,114.166725 
	C331.996613,120.751785 331.806946,126.542946 332.052582,132.315582 
	C332.145386,134.497131 332.883636,136.834503 333.945557,138.760117 
	C338.795563,147.554749 343.865021,156.228363 348.855591,164.945480 
M296.194916,209.706512 
	C312.596802,194.861526 320.209961,176.379776 316.307404,154.568970 
	C311.022461,125.031792 291.820892,108.917839 262.782837,103.596893 
	C262.782837,94.978630 262.785065,86.658241 262.781891,78.337852 
	C262.780365,74.318153 261.218658,71.208672 256.853516,71.272781 
	C252.795120,71.332397 251.240433,74.309540 251.220184,78.126656 
	C251.206909,80.626472 251.213867,83.126411 251.213608,85.626297 
	C251.212967,91.721336 251.213409,97.816383 251.213409,103.785126 
	C215.228851,109.161125 197.227493,137.145096 196.667969,163.269669 
	C196.028000,193.149445 214.976013,214.747391 251.214615,224.581619 
	C251.214615,232.607422 251.257050,240.745819 251.196686,248.883438 
	C251.166611,252.937866 252.068512,256.355133 256.786316,256.854950 
	C260.527435,257.251312 262.745941,254.161423 262.774139,248.812485 
	C262.817047,240.677582 262.785400,232.542282 262.785400,224.526291 
	C282.398987,219.485077 285.572113,218.091049 296.194916,209.706512 
M189.374588,324.945679 
	C185.225784,330.196777 184.666534,335.796783 187.982178,341.621521 
	C190.775955,346.529510 196.524277,349.276917 201.893600,348.501862 
	C208.197372,347.591949 212.950897,343.170685 214.175369,337.078613 
	C215.368729,331.141449 212.792191,325.206818 207.667099,322.088013 
	C201.903732,318.580780 195.854019,319.365448 189.374588,324.945679 
M214.366211,401.914948 
	C213.521759,398.356598 210.958176,397.232941 207.650940,397.220276 
	C202.651855,397.201172 197.652008,397.166626 192.653702,397.232361 
	C188.879410,397.281982 185.997299,398.737122 185.983093,402.975433 
	C185.968887,407.211182 188.835785,408.704834 192.612076,408.763916 
	C197.610016,408.842072 202.610275,408.812286 207.609177,408.776031 
	C211.673386,408.746552 214.316238,407.046051 214.366211,401.914948 
M193.855530,382.933380 
	C198.665344,382.930450 203.476105,382.985107 208.284668,382.905884 
	C211.981613,382.845032 214.406219,380.954315 214.411758,377.183960 
	C214.417374,373.361389 211.928833,371.602234 208.230011,371.569916 
	C203.254700,371.526398 198.278610,371.575378 193.303253,371.535339 
	C189.430115,371.504150 186.105759,372.450867 186.017822,377.036438 
	C185.932373,381.491943 188.932968,382.966797 193.855530,382.933380 
z"/>
<path fill="#FDFEFE" opacity="1.000000" stroke="none" 
	d="
M325.936340,80.517509 
	C311.017822,67.469055 294.144257,57.876450 274.126892,54.554077 
	C244.722351,49.673676 218.441147,56.717220 195.111740,75.278854 
	C181.592209,86.035446 172.393890,99.844261 165.368622,115.727768 
	C166.947449,79.294083 184.462448,52.426262 217.001266,36.055576 
	C251.069717,18.915318 291.574005,25.497522 319.648926,51.238964 
	C324.161255,55.376255 326.650879,59.809372 326.110504,66.063568 
	C325.710236,70.695709 326.018860,75.389091 325.936340,80.517509 
z"/>
<path fill="#FAFAFB" opacity="1.000000" stroke="none" 
	d="
M348.929932,164.501587 
	C343.865021,156.228363 338.795563,147.554749 333.945557,138.760117 
	C332.883636,136.834503 332.145386,134.497131 332.052582,132.315582 
	C331.806946,126.542946 331.996613,120.751785 332.003510,114.501892 
	C343.036652,128.882782 348.313324,145.690552 348.929932,164.501587 
z"/>
<path fill="#363A3F" opacity="1.000000" stroke="none" 
	d="
M295.923248,209.936783 
	C285.572113,218.091049 282.398987,219.485077 262.785400,224.526291 
	C262.785400,232.542282 262.817047,240.677582 262.774139,248.812485 
	C262.745941,254.161423 260.527435,257.251312 256.786316,256.854950 
	C252.068512,256.355133 251.166611,252.937866 251.196686,248.883438 
	C251.257050,240.745819 251.214615,232.607422 251.214615,224.581619 
	C214.976013,214.747391 196.028000,193.149445 196.667969,163.269669 
	C197.227493,137.145096 215.228851,109.161125 251.213409,103.785126 
	C251.213409,97.816383 251.212967,91.721336 251.213608,85.626297 
	C251.213867,83.126411 251.206909,80.626472 251.220184,78.126656 
	C251.240433,74.309540 252.795120,71.332397 256.853516,71.272781 
	C261.218658,71.208672 262.780365,74.318153 262.781891,78.337852 
	C262.785065,86.658241 262.782837,94.978630 262.782837,103.596893 
	C291.820892,108.917839 311.022461,125.031792 316.307404,154.568970 
	C320.209961,176.379776 312.596802,194.861526 295.923248,209.936783 
M265.665924,155.369797 
	C259.154694,150.596817 252.498779,150.802582 247.892746,155.919220 
	C243.367645,160.945953 243.782364,167.854126 249.312286,173.746521 
	C255.756622,177.553741 262.194000,176.953384 266.321503,172.160233 
	C270.305573,167.533661 270.161133,161.399338 265.665924,155.369797 
M220.789948,196.679016 
	C240.983871,218.570435 275.268066,218.281265 294.139374,195.747498 
	C300.175140,188.280914 304.385498,180.059631 305.175842,170.027649 
	C296.568878,170.027649 288.444946,170.027649 280.232941,170.027649 
	C276.362488,180.810913 269.101837,187.667114 257.420746,187.868256 
	C245.253525,188.077744 237.794846,181.006256 233.718384,170.064575 
	C225.407410,170.064575 217.287140,170.064575 208.715042,170.064575 
	C209.902542,180.204590 213.701462,188.772568 220.789948,196.679016 
M239.076385,148.627716 
	C252.216888,135.390762 270.891785,138.507004 279.020020,155.227158 
	C279.587067,156.393631 280.853729,158.025360 281.837921,158.055801 
	C289.453491,158.291321 297.079620,158.185638 304.655548,158.185638 
	C306.077179,136.856750 281.114380,114.856461 256.463257,115.145950 
	C232.157181,115.431381 207.557999,137.656448 209.418533,158.233078 
	C213.154922,158.233078 216.987289,157.901855 220.741898,158.301376 
	C228.794693,159.158279 235.890167,158.582413 239.076385,148.627716 
z"/>
<path fill="#363A3E" opacity="1.000000" stroke="none" 
	d="
M189.628601,324.670227 
	C195.854019,319.365448 201.903732,318.580780 207.667099,322.088013 
	C212.792191,325.206818 215.368729,331.141449 214.175369,337.078613 
	C212.950897,343.170685 208.197372,347.591949 201.893600,348.501862 
	C196.524277,349.276917 190.775955,346.529510 187.982178,341.621521 
	C184.666534,335.796783 185.225784,330.196777 189.628601,324.670227 
M199.001785,336.922760 
	C201.708191,337.431427 203.483780,336.492279 202.829971,333.588837 
	C202.624725,332.677338 200.463409,331.354767 199.591583,331.603271 
	C196.884521,332.374817 196.512802,334.321411 199.001785,336.922760 
z"/>
<path fill="#3C4044" opacity="1.000000" stroke="none" 
	d="
M214.437439,402.273499 
	C214.316238,407.046051 211.673386,408.746552 207.609177,408.776031 
	C202.610275,408.812286 197.610016,408.842072 192.612076,408.763916 
	C188.835785,408.704834 185.968887,407.211182 185.983093,402.975433 
	C185.997299,398.737122 188.879410,397.281982 192.653702,397.232361 
	C197.652008,397.166626 202.651855,397.201172 207.650940,397.220276 
	C210.958176,397.232941 213.521759,398.356598 214.437439,402.273499 
z"/>
<path fill="#363A3E" opacity="1.000000" stroke="none" 
	d="
M193.403534,382.933014 
	C188.932968,382.966797 185.932373,381.491943 186.017822,377.036438 
	C186.105759,372.450867 189.430115,371.504150 193.303253,371.535339 
	C198.278610,371.575378 203.254700,371.526398 208.230011,371.569916 
	C211.928833,371.602234 214.417374,373.361389 214.411758,377.183960 
	C214.406219,380.954315 211.981613,382.845032 208.284668,382.905884 
	C203.476105,382.985107 198.665344,382.930450 193.403534,382.933014 
z"/>
<path fill="#0085FD" opacity="1.000000" stroke="none" 
	d="
M238.842682,148.905243 
	C235.890167,158.582413 228.794693,159.158279 220.741898,158.301376 
	C216.987289,157.901855 213.154922,158.233078 209.418533,158.233078 
	C207.557999,137.656448 232.157181,115.431381 256.463257,115.145950 
	C281.114380,114.856461 306.077179,136.856750 304.655548,158.185638 
	C297.079620,158.185638 289.453491,158.291321 281.837921,158.055801 
	C280.853729,158.025360 279.587067,156.393631 279.020020,155.227158 
	C270.891785,138.507004 252.216888,135.390762 238.842682,148.905243 
z"/>
<path fill="#D7E4E9" opacity="1.000000" stroke="none" 
	d="
M220.417816,196.067169 
	C213.701462,188.772568 209.902542,180.204590 208.715042,170.064575 
	C217.287140,170.064575 225.407410,170.064575 233.718384,170.064575 
	C237.794846,181.006256 245.253525,188.077744 257.420746,187.868256 
	C269.101837,187.667114 276.362488,180.810913 280.232941,170.027649 
	C288.444946,170.027649 296.568878,170.027649 305.175842,170.027649 
	C304.385498,180.059631 300.175140,188.280914 293.472565,195.955139 
	C290.818420,196.979492 288.772522,197.678253 286.852875,198.631302 
	C269.192871,207.398712 251.151749,207.806290 232.808823,201.101120 
	C228.624252,199.571503 224.545349,197.752823 220.417816,196.067169 
z"/>
<path fill="#F9F9F9" opacity="1.000000" stroke="none" 
	d="
M220.603882,196.373093 
	C224.545349,197.752823 228.624252,199.571503 232.808823,201.101120 
	C251.151749,207.806290 269.192871,207.398712 286.852875,198.631302 
	C288.772522,197.678253 290.818420,196.979492 293.202026,196.113831 
	C275.268066,218.281265 240.983871,218.570435 220.603882,196.373093 
z"/>
<path fill="#D6E2E7" opacity="1.000000" stroke="none" 
	d="
M248.925613,173.123901 
	C243.782364,167.854126 243.367645,160.945953 247.892746,155.919220 
	C252.498779,150.802582 259.154694,150.596817 265.517639,155.857666 
	C259.888123,161.938324 254.406860,167.531113 248.925613,173.123901 
z"/>
<path fill="#FBFBFB" opacity="1.000000" stroke="none" 
	d="
M249.118958,173.435211 
	C254.406860,167.531113 259.888123,161.938324 265.655396,156.182007 
	C270.161133,161.399338 270.305573,167.533661 266.321503,172.160233 
	C262.194000,176.953384 255.756622,177.553741 249.118958,173.435211 
z"/>
<path fill="#C1DBDF" opacity="1.000000" stroke="none" 
	d="
M198.668961,336.736542 
	C196.512802,334.321411 196.884521,332.374817 199.591583,331.603271 
	C200.463409,331.354767 202.624725,332.677338 202.829971,333.588837 
	C203.483780,336.492279 201.708191,337.431427 198.668961,336.736542 
z"/>
</svg>