<svg version="1.1" id="Layer_1" xmlns="http://www.w3.org/2000/svg" x="0px" y="0px"
	 width="100%" viewBox="0 0 256 256" enable-background="new 0 0 256 256" xml:space="preserve">
<path fill="#F9C137" opacity="1.000000" stroke="none"
	d="
M120.000000,257.000000
	C80.000000,257.000000 40.500004,257.000000 1.000005,257.000000
	C1.000004,171.666672 1.000004,86.333351 1.000002,1.000017
	C86.333321,1.000011 171.666641,1.000011 257.000000,1.000006
	C257.000000,86.333313 257.000000,171.666626 257.000000,256.999969
	C211.500000,257.000000 166.000000,257.000000 120.000000,257.000000
M133.942093,169.208099
	C133.400085,171.942429 132.858093,174.676758 132.250336,177.742737
	C139.290466,177.742737 145.895737,177.742737 152.954971,177.742737
	C154.941391,167.844788 157.062805,157.959442 158.840637,148.012680
	C159.399521,144.885818 160.664688,143.851013 163.757706,143.998672
	C168.074890,144.204758 172.429932,144.217407 176.738037,143.898178
	C188.276535,143.043198 199.262146,140.340317 207.382339,131.383835
	C216.425720,121.409050 218.437225,109.324608 214.697083,96.846718
	C211.190750,85.148918 200.921112,81.423241 190.022263,80.656792
	C178.089401,79.817642 166.067490,80.120178 154.088791,80.272263
	C153.022110,80.285812 151.348419,82.723457 151.033417,84.256523
	C145.276306,112.274025 139.684036,140.325409 133.942093,169.208099
M131.315262,87.828712
	C132.881241,85.456078 134.447220,83.083443 136.433563,80.073914
	C130.526047,80.073914 125.664742,80.460060 120.894386,79.966728
	C115.995857,79.460144 113.437622,81.471085 111.113792,85.558952
	C105.563904,95.321815 99.524536,104.806427 93.208275,115.182983
	C90.571625,104.214912 88.238907,94.190926 85.683517,84.224030
	C85.297379,82.717964 83.931290,80.348183 82.921143,80.296944
	C76.053589,79.948555 69.159927,80.114716 61.631695,80.114716
	C66.372543,95.058708 70.732201,109.169319 75.382805,123.183388
	C76.450928,126.402031 76.065865,128.721237 74.086700,131.420334
	C63.950096,145.244141 53.989113,159.196808 43.980511,173.114334
	C42.976147,174.510941 42.064384,175.974152 40.709957,178.006073
	C47.488995,178.006073 53.321026,178.258102 59.108868,177.862854
	C61.012177,177.732895 63.487061,176.382690 64.529915,174.812820
	C70.880707,165.252502 76.885971,155.462906 83.029221,145.764206
	C83.840813,144.482895 84.781540,143.283356 86.183746,141.313690
	C89.189064,152.983322 91.845299,163.592285 94.726524,174.139786
	C95.119347,175.577835 96.583405,177.758743 97.640388,177.811432
	C104.374069,178.147018 111.132698,177.982208 118.487198,177.982208
	C117.719040,175.371506 117.216530,173.471115 116.602425,171.607468
	C112.335342,158.657959 108.142128,145.682541 103.690300,132.796600
	C102.649269,129.783310 102.925552,127.575249 104.798752,124.996941
	C113.602539,112.879257 122.221939,100.627609 131.315262,87.828712
z"/>
<path fill="#FFFEFC" opacity="1.000000" stroke="none" 
	d="
M133.999420,168.788849 
	C139.684036,140.325409 145.276306,112.274025 151.033417,84.256523 
	C151.348419,82.723457 153.022110,80.285812 154.088791,80.272263 
	C166.067490,80.120178 178.089401,79.817642 190.022263,80.656792 
	C200.921112,81.423241 211.190750,85.148918 214.697083,96.846718 
	C218.437225,109.324608 216.425720,121.409050 207.382339,131.383835 
	C199.262146,140.340317 188.276535,143.043198 176.738037,143.898178 
	C172.429932,144.217407 168.074890,144.204758 163.757706,143.998672 
	C160.664688,143.851013 159.399521,144.885818 158.840637,148.012680 
	C157.062805,157.959442 154.941391,167.844788 152.954971,177.742737 
	C145.895737,177.742737 139.290466,177.742737 132.250336,177.742737 
	C132.858093,174.676758 133.400085,171.942429 133.999420,168.788849 
M166.862305,108.342628 
	C165.642502,114.636566 164.422714,120.930496 162.934494,128.609375 
	C170.963181,127.586891 178.185989,127.445648 184.944946,125.603004 
	C192.839569,123.450745 197.054260,115.005119 195.621140,106.923492 
	C194.420990,100.155670 189.915100,97.087067 180.669037,96.740768 
	C169.289307,96.314568 169.289307,96.314552 166.862305,108.342628 
z"/>
<path fill="#FFFEFC" opacity="1.000000" stroke="none" 
	d="
M131.111206,88.126236 
	C122.221939,100.627609 113.602539,112.879257 104.798752,124.996941 
	C102.925552,127.575249 102.649269,129.783310 103.690300,132.796600 
	C108.142128,145.682541 112.335342,158.657959 116.602425,171.607468 
	C117.216530,173.471115 117.719040,175.371506 118.487198,177.982208 
	C111.132698,177.982208 104.374069,178.147018 97.640388,177.811432 
	C96.583405,177.758743 95.119347,175.577835 94.726524,174.139786 
	C91.845299,163.592285 89.189064,152.983322 86.183746,141.313690 
	C84.781540,143.283356 83.840813,144.482895 83.029221,145.764206 
	C76.885971,155.462906 70.880707,165.252502 64.529915,174.812820 
	C63.487061,176.382690 61.012177,177.732895 59.108868,177.862854 
	C53.321026,178.258102 47.488995,178.006073 40.709957,178.006073 
	C42.064384,175.974152 42.976147,174.510941 43.980511,173.114334 
	C53.989113,159.196808 63.950096,145.244141 74.086700,131.420334 
	C76.065865,128.721237 76.450928,126.402031 75.382805,123.183388 
	C70.732201,109.169319 66.372543,95.058708 61.631695,80.114716 
	C69.159927,80.114716 76.053589,79.948555 82.921143,80.296944 
	C83.931290,80.348183 85.297379,82.717964 85.683517,84.224030 
	C88.238907,94.190926 90.571625,104.214912 93.208275,115.182983 
	C99.524536,104.806427 105.563904,95.321815 111.113792,85.558952 
	C113.437622,81.471085 115.995857,79.460144 120.894386,79.966728 
	C125.664742,80.460060 130.526047,80.073914 136.433563,80.073914 
	C134.447220,83.083443 132.881241,85.456078 131.111206,88.126236 
z"/>
<path fill="#F9C23B" opacity="1.000000" stroke="none" 
	d="
M166.917297,107.920555 
	C169.289307,96.314552 169.289307,96.314568 180.669037,96.740768 
	C189.915100,97.087067 194.420990,100.155670 195.621140,106.923492 
	C197.054260,115.005119 192.839569,123.450745 184.944946,125.603004 
	C178.185989,127.445648 170.963181,127.586891 162.934494,128.609375 
	C164.422714,120.930496 165.642502,114.636566 166.917297,107.920555 
z"/>
</svg>